<svg width="64" height="65" viewBox="0 0 64 65" fill="none" xmlns="http://www.w3.org/2000/svg">
<mask id="mask0_2_327" style="mask-type:luminance" maskUnits="userSpaceOnUse" x="0" y="0" width="64" height="65">
<path d="M64 0.0698242H0V64.0698H64V0.0698242Z" fill="white"/>
</mask>
<g mask="url(#mask0_2_327)">
<path d="M56 4.06982H7.98999C5.78999 4.06982 4 5.87986 4 8.10986V56.0298C4 58.2598 5.78999 60.0698 7.98999 60.0698H56C58.2 60.0698 60 58.2598 60 56.0298V8.10986C60 5.87986 58.2 4.06982 56 4.06982ZM20.92 52.0698H12.62V25.3398H20.9399V52.0698H20.92ZM16.77 21.6899C14.11 21.6899 11.96 19.5299 11.96 16.8799C11.96 14.2299 14.11 12.0698 16.77 12.0698C19.42 12.0698 21.59 14.2299 21.59 16.8799C21.59 19.5399 19.44 21.6899 16.77 21.6899ZM52.04 52.0698H43.74V39.0698C43.74 35.9698 43.67 31.98 39.42 31.98C35.1 31.98 34.4399 35.3598 34.4399 38.8398V52.0698H26.14V25.3398H34.1V28.9902H34.21C35.32 26.8902 38.04 24.6802 42.08 24.6802C50.47 24.6802 52.04 30.2199 52.04 37.4199V52.0698Z" fill="#F7F7FF"/>
</g>
</svg>
